<svg width="64" height="64" viewBox="0 0 16.933 16.933" xmlns="http://www.w3.org/2000/svg"><path style="color:#000;fill-opacity:1;stroke:none;stroke-width:.529167;stroke-linecap:round;stroke-linejoin:round;stroke-dasharray:none;stroke-opacity:1" d="M8.466.001C3.802.001 0 3.803 0 8.466c0 4.666 3.802 8.467 8.466 8.467 4.666 0 8.467-3.803 8.467-8.467a.959.959 0 0 0-.96-.956.959.959 0 0 0-.957.956 6.535 6.534 0 0 1-6.55 6.55 6.535 6.534 0 0 1-6.549-6.55 6.535 6.534 0 0 1 6.549-6.548h.008A.959.959 0 0 0 9.431.96.959.959 0 0 0 8.474 0Zm5.49 1.854a.959.959 0 0 0-.15.006.959.959 0 0 0-.64.361l-4.904 6.26-1.9-1.601a.959.959 0 0 0-1.351.116.959.959 0 0 0 .115 1.352l2.659 2.242a.959.959 0 0 0 1.373-.143l5.516-7.046a.959.959 0 0 0-.165-1.344.959.959 0 0 0-.553-.204Z"/></svg>